<svg width="100" height="100" viewBox="0 0 100 100" fill="none" xmlns="http://www.w3.org/2000/svg">
<path d="M33.1867 26.8269C40.9912 14.3742 59.111 14.3096 67.0041 26.7063L67.2339 27.0673C68.8195 29.5576 70.9368 31.666 73.4337 33.2412L75.6894 34.6641C87.4727 42.0974 88.2359 58.9995 77.1706 67.4645L73.1864 70.5124C71.8113 71.5644 70.5786 72.7904 69.5192 74.1599L66.9496 77.4816C58.8972 87.8908 43.1597 87.8198 35.2015 77.3383L32.7415 74.0983C31.4876 72.4468 29.9845 71.0003 28.286 69.8108L24.9466 67.472C13.1591 59.2163 13.6868 41.5873 25.947 34.0515L26.3702 33.7914C28.9934 32.179 31.2089 29.9828 32.844 27.3737L33.1867 26.8269Z" fill="#0F0223"/>
<line x1="40.8027" y1="50.189" x2="61.3371" y2="50.189" stroke="white" stroke-width="5" stroke-linecap="round"/>
<line x1="50.5342" y1="61.3359" x2="50.5342" y2="39.8194" stroke="white" stroke-width="5" stroke-linecap="round"/>
</svg>
