<svg width="560" height="320" viewBox="0 0 560 320" fill="none" xmlns="http://www.w3.org/2000/svg">
<rect width="560" height="320" fill="#252730"/>
<path d="M273.784 51.3785C276.936 46.507 284.064 46.507 287.216 51.3785L298.924 69.4708C300.982 72.6501 304.987 73.9513 308.52 72.5885L328.626 64.8334C334.04 62.7453 339.806 66.9348 339.493 72.729L338.331 94.2478C338.127 98.0292 340.602 101.436 344.261 102.41L365.086 107.954C370.693 109.447 372.896 116.226 369.237 120.73L355.648 137.455C353.26 140.395 353.26 144.605 355.648 147.545L369.237 164.27C372.896 168.774 370.693 175.553 365.086 177.046L344.261 182.59C340.602 183.564 338.127 186.971 338.331 190.752L339.493 212.271C339.806 218.065 334.04 222.255 328.626 220.167L308.52 212.411C304.987 211.049 300.982 212.35 298.925 215.529L287.216 233.621C284.064 238.493 276.936 238.493 273.784 233.621L262.076 215.529C260.018 212.35 256.013 211.049 252.48 212.411L232.374 220.167C226.96 222.255 221.194 218.065 221.507 212.271L222.669 190.752C222.873 186.971 220.398 183.564 216.739 182.59L195.914 177.046C190.307 175.553 188.104 168.774 191.763 164.27L205.352 147.545C207.74 144.605 207.74 140.395 205.352 137.455L191.763 120.73C188.104 116.226 190.307 109.447 195.914 107.954L216.739 102.41C220.398 101.436 222.873 98.0292 222.669 94.2478L221.507 72.729C221.194 66.9348 226.96 62.7453 232.374 64.8334L252.48 72.5885C256.013 73.9513 260.018 72.6501 262.075 69.4709L273.784 51.3785Z" fill="#5200FF"/>
<circle cx="254.846" cy="124.654" r="15.6154" fill="white"/>
<circle cx="255.404" cy="124.096" r="12.8269" fill="black"/>
<circle cx="302.808" cy="124.654" r="15.6154" fill="white"/>
<circle cx="303.365" cy="124.096" r="12.8269" fill="black"/>
<path d="M298.346 110.154L293.885 106.808" stroke="black" stroke-width="2" stroke-linecap="round"/>
<path d="M250.385 110.154L245.923 106.808" stroke="black" stroke-width="2" stroke-linecap="round"/>
<path d="M307.269 110.154L311.731 105.692" stroke="black" stroke-width="2" stroke-linecap="round"/>
<path d="M259.308 110.154L263.769 105.692" stroke="black" stroke-width="2" stroke-linecap="round"/>
<path d="M303.069 108.045V102.346" stroke="black" stroke-width="2" stroke-linecap="round"/>
<path d="M255.108 108.045V102.346" stroke="black" stroke-width="2" stroke-linecap="round"/>
<circle cx="230" cy="274" r="6" fill="#CECECE"/>
<circle cx="250" cy="274" r="6" fill="#CECECE"/>
<circle cx="270" cy="274" r="6" fill="#CECECE"/>
<circle cx="290" cy="274" r="6" fill="#CECECE"/>
<circle cx="310" cy="274" r="6" fill="#CECECE"/>
<circle cx="330" cy="274" r="6" fill="#CECECE"/>
</svg>
