<svg width="70" height="69" viewBox="0 0 70 69" fill="none" xmlns="http://www.w3.org/2000/svg">
<path d="M17.1867 9.82691C24.9912 -2.62578 43.111 -2.69038 51.0041 9.70634L51.2339 10.0673C52.8195 12.5576 54.9368 14.666 57.4337 16.2412L59.6894 17.6641C71.4727 25.0974 72.2359 41.9995 61.1706 50.4645L57.1864 53.5124C55.8113 54.5644 54.5786 55.7904 53.5192 57.1599L50.9496 60.4816C42.8972 70.8908 27.1597 70.8198 19.2015 60.3383L16.7415 57.0983C15.4876 55.4468 13.9845 54.0003 12.286 52.8108L8.94661 50.472C-2.84089 42.2163 -2.31319 24.5873 9.94702 17.0515L10.3702 16.7914C12.9934 15.179 15.2089 12.9828 16.844 10.3737L17.1867 9.82691Z" fill="#0F0223"/>
</svg>
