<svg width="current" height="current" viewBox="0 0 281 281" fill="none" xmlns="http://www.w3.org/2000/svg">
<circle cx="140.5" cy="140.5" r="140.5" fill="white"/>
<circle cx="140.5" cy="139.5" r="126" fill="#010028" stroke="black" stroke-width="3"/>
<line x1="138" y1="41" x2="138" y2="63" stroke="white" stroke-width="6" stroke-linecap="round"/>
<line x1="140" y1="97" x2="140" y2="130" stroke="white" stroke-width="8" stroke-linecap="round"/>
<line x1="145.495" y1="138.656" x2="196.788" y2="169.784" stroke="white" stroke-width="8" stroke-linecap="round"/>
<line x1="43" y1="140" x2="65" y2="140" stroke="white" stroke-width="6" stroke-linecap="round"/>
<line x1="210" y1="140" x2="232" y2="140" stroke="white" stroke-width="6" stroke-linecap="round"/>
<line x1="192" y1="90.5562" x2="207.556" y2="74.9998" stroke="white" stroke-width="6" stroke-linecap="round"/>
<line x1="188.104" y1="192.923" x2="207.099" y2="204.022" stroke="white" stroke-width="6" stroke-linecap="round"/>
<line x1="71.2426" y1="77" x2="86.799" y2="92.5564" stroke="white" stroke-width="6" stroke-linecap="round"/>
<line x1="87.3043" y1="190.237" x2="70.3027" y2="204.199" stroke="white" stroke-width="6" stroke-linecap="round"/>
<line x1="138" y1="216" x2="138" y2="238" stroke="white" stroke-width="6" stroke-linecap="round"/>
<circle r="9" transform="matrix(1 0 0 -1 140 137)" fill="#5200FF"/>
<path d="M128.14 19V21.6H130.94V33H134.18V19H128.14ZM140.652 30.36L143.872 27.32C145.832 25.5 146.212 24.26 146.212 22.9C146.212 20.36 144.132 18.76 141.012 18.76C138.492 18.76 136.532 19.78 135.452 21.36L137.812 22.88C138.492 21.94 139.512 21.48 140.712 21.48C142.192 21.48 142.952 22.12 142.952 23.22C142.952 23.9 142.732 24.62 141.492 25.8L136.092 30.9V33H146.672V30.36H140.652Z" fill="white"/>
<path d="M247.32 137.7L250.48 134.1V132H240.68V134.6H246.64L243.76 137.86V140H245.24C247.08 140 247.86 140.66 247.86 141.72C247.86 142.86 246.86 143.52 245.24 143.52C243.78 143.52 242.3 143.06 241.24 142.26L239.98 144.74C241.34 145.7 243.36 146.24 245.32 146.24C249.3 146.24 251.12 144.08 251.12 141.72C251.12 139.66 249.84 138.1 247.32 137.7Z" fill="white"/>
<path d="M140.52 251.22C139.06 251.22 137.88 251.64 137.06 252.46C137.16 249.78 138.66 248.4 141 248.4C141.94 248.4 142.84 248.58 143.62 249.1L144.82 246.72C143.84 246.1 142.4 245.76 140.92 245.76C136.7 245.76 133.78 248.46 133.78 253.3C133.78 257.82 136.18 260.24 140.04 260.24C143 260.24 145.34 258.44 145.34 255.58C145.34 252.94 143.22 251.22 140.52 251.22ZM139.86 257.82C138.3 257.82 137.4 256.94 137.4 255.74C137.4 254.52 138.4 253.64 139.82 253.64C141.26 253.64 142.2 254.46 142.2 255.74C142.2 257.02 141.24 257.82 139.86 257.82Z" fill="white"/>
<path d="M25.7 132.76C22.74 132.76 20.4 134.56 20.4 137.42C20.4 140.06 22.52 141.78 25.22 141.78C26.68 141.78 27.88 141.34 28.7 140.52C28.6 143.22 27.08 144.6 24.76 144.6C23.8 144.6 22.9 144.42 22.14 143.9L20.94 146.28C21.92 146.9 23.34 147.24 24.82 147.24C29.06 147.24 31.96 144.54 31.96 139.7C31.96 135.18 29.58 132.76 25.7 132.76ZM25.94 139.36C24.5 139.36 23.56 138.54 23.56 137.26C23.56 135.98 24.52 135.18 25.9 135.18C27.44 135.18 28.34 136.06 28.34 137.26C28.34 138.48 27.36 139.36 25.94 139.36Z" fill="white"/>
</svg>
