<svg width="current" height="current" viewBox="0 0 182 182" fill="none" xmlns="http://www.w3.org/2000/svg">
<path d="M84.2837 10.3785C87.4362 5.50704 94.5638 5.50704 97.7163 10.3785L107.153 24.9611C109.211 28.1403 113.215 29.4415 116.748 28.0788L132.954 21.8281C138.368 19.74 144.135 23.9295 143.822 29.7236L142.885 47.068C142.681 50.8494 145.156 54.256 148.815 55.2302L165.6 59.699C171.207 61.1918 173.41 67.9706 169.751 72.4742L158.798 85.9555C156.41 88.8946 156.41 93.1054 158.798 96.0445L169.751 109.526C173.41 114.029 171.207 120.808 165.6 122.301L148.815 126.77C145.156 127.744 142.681 131.151 142.885 134.932L143.822 152.276C144.135 158.07 138.368 162.26 132.954 160.172L116.748 153.921C113.215 152.558 109.211 153.86 107.153 157.039L97.7163 171.621C94.5638 176.493 87.4362 176.493 84.2837 171.621L74.8468 157.039C72.7894 153.86 68.7847 152.558 65.2516 153.921L49.0455 160.172C43.6317 162.26 37.8653 158.071 38.1783 152.276L39.1151 134.932C39.3193 131.151 36.8443 127.744 33.1849 126.77L16.3999 122.301C10.7926 120.808 8.59009 114.029 12.249 109.526L23.2017 96.0445C25.5895 93.1054 25.5895 88.8946 23.2017 85.9555L12.249 72.4742C8.59009 67.9706 10.7926 61.1918 16.3999 59.699L33.1849 55.2302C36.8443 54.256 39.3193 50.8494 39.1151 47.0681L38.1783 29.7236C37.8653 23.9295 43.6317 19.74 49.0455 21.8281L65.2516 28.0788C68.7847 29.4415 72.7894 28.1403 74.8468 24.9611L84.2837 10.3785Z" fill="#FFD43E"/>
<circle cx="66" cy="81" r="14" fill="white"/>
<circle cx="61" cy="76" r="7" fill="black"/>
<circle cx="109" cy="81" r="14" fill="white"/>
<circle cx="105" cy="76" r="7" fill="black"/>
</svg>
