<svg width="current" height="current" viewBox="0 0 161 162" fill="none" xmlns="http://www.w3.org/2000/svg">
<path d="M80.5 0L102.888 11.668L127.817 15.4696L139.113 38.1505L157.06 55.9696L152.95 81L157.06 106.03L139.113 123.85L127.817 146.53L102.888 150.332L80.5 162L58.1117 150.332L33.1833 146.53L21.8867 123.85L3.93995 106.03L8.05 81L3.93995 55.9696L21.8867 38.1505L33.1833 15.4696L58.1117 11.668L80.5 0Z" fill="#FF04C8"/>
<ellipse cx="78.5" cy="74.5" rx="14.5" ry="21.5" fill="white"/>
<path d="M93 76C93 85.3888 87.8513 93 81.5 93C75.1487 93 70 85.3888 70 76C70 66.6112 75.1487 59 81.5 59C87.8513 59 93 66.6112 93 76Z" fill="black"/>
<ellipse cx="122.5" cy="74.5" rx="14.5" ry="21.5" fill="white"/>
<ellipse cx="125.5" cy="76" rx="11.5" ry="17" fill="black"/>
</svg>
