<svg width="current" height="current" viewBox="0 0 150 150" fill="none" xmlns="http://www.w3.org/2000/svg">
<circle cx="75" cy="75" r="75" fill="#242527"/>
<path d="M36.3432 74.5173C47.0268 79.0311 59.3467 74.0295 63.8605 63.346L25.1719 47C20.6581 57.6836 25.6596 70.0035 36.3432 74.5173Z" fill="white"/>
<path d="M109.34 74.4545C120.335 70.7647 126.258 58.86 122.568 47.8646L82.75 61.2266C86.4398 72.2219 98.3445 78.1443 109.34 74.4545Z" fill="white"/>
<path d="M50.4999 57.4111C49.4999 60.9111 46.5 64.8182 42 64C36.5 63 35.0001 57.9112 37.4999 52.4111C37.7272 51.9111 38.4998 52.5 42.4999 54C46.4999 55.5 50.4999 57.4111 50.4999 57.4111Z" fill="black"/>
<path d="M97 56.5C98 60 101 64.5815 105.5 63.7633C111 62.7633 112.499 57.6749 110 52.1744C109.84 51.8232 107.5 52.5 103.5 54C99.4999 55.5 97 56.5 97 56.5Z" fill="black"/>
</svg>
