<svg width="18" height="18" viewBox="0 0 20 20" fill="none" xmlns="http://www.w3.org/2000/svg">
<path d="M12.1094 8.83203L11.0547 9.89453C11.513 9.9362 11.9062 10.0273 12.2344 10.168C12.5625 10.3086 12.8438 10.4961 13.0781 10.7305C13.5 11.1523 13.7812 11.6211 13.9219 12.1367C14.0625 12.6471 14.0625 13.1576 13.9219 13.668C13.7812 14.1732 13.5 14.6367 13.0781 15.0586L10.6484 17.4883C10.2266 17.9154 9.76042 18.1992 9.25 18.3398C8.73958 18.4805 8.22917 18.4805 7.71875 18.3398C7.20833 18.1992 6.74479 17.918 6.32812 17.4961C5.90104 17.069 5.61719 16.6003 5.47656 16.0898C5.33594 15.5794 5.33594 15.0716 5.47656 14.5664C5.61719 14.056 5.89844 13.5898 6.32031 13.168L7.66406 11.8086C7.5599 11.5586 7.48958 11.2904 7.45312 11.0039C7.42188 10.7122 7.43229 10.4336 7.48438 10.168L5.34375 12.3086C4.75 12.9076 4.35156 13.569 4.14844 14.293C3.95052 15.0117 3.95052 15.7357 4.14844 16.4648C4.34635 17.1888 4.7474 17.8529 5.35156 18.457C5.95573 19.0664 6.61979 19.4701 7.34375 19.668C8.07292 19.8711 8.79948 19.8711 9.52344 19.668C10.2474 19.4648 10.9089 19.0638 11.5078 18.4648L14.0547 15.918C14.6484 15.319 15.0469 14.6576 15.25 13.9336C15.4531 13.2096 15.4531 12.4857 15.25 11.7617C15.0521 11.0326 14.651 10.3659 14.0469 9.76172C13.8177 9.54297 13.5495 9.35286 13.2422 9.19141C12.9401 9.02995 12.5625 8.91016 12.1094 8.83203ZM11.6797 14.9883L12.7266 13.9258C12.2682 13.8841 11.875 13.793 11.5469 13.6523C11.2188 13.5117 10.9401 13.3216 10.7109 13.082C10.2839 12.6602 10 12.194 9.85938 11.6836C9.71875 11.1732 9.71875 10.6628 9.85938 10.1523C10 9.64193 10.2812 9.17578 10.7031 8.75391L13.1406 6.33203C13.5573 5.90495 14.0208 5.62109 14.5312 5.48047C15.0417 5.33984 15.5521 5.33984 16.0625 5.48047C16.5729 5.62109 17.0391 5.90234 17.4609 6.32422C17.888 6.7513 18.1719 7.22005 18.3125 7.73047C18.4531 8.24089 18.4505 8.7513 18.3047 9.26172C18.1641 9.76693 17.8828 10.2305 17.4609 10.6523L16.1172 12.0039C16.2214 12.2591 16.2891 12.5326 16.3203 12.8242C16.3568 13.1107 16.349 13.3841 16.2969 13.6445L18.4375 11.5117C19.0365 10.9128 19.4349 10.2513 19.6328 9.52734C19.8359 8.80339 19.8359 8.07943 19.6328 7.35547C19.4349 6.63151 19.0339 5.96484 18.4297 5.35547C17.8255 4.7513 17.1589 4.35026 16.4297 4.15234C15.7057 3.94922 14.9818 3.94922 14.2578 4.15234C13.5391 4.35547 12.8802 4.75391 12.2812 5.34766L9.72656 7.90234C9.13281 8.5013 8.73438 9.16276 8.53125 9.88672C8.33333 10.6107 8.33333 11.3346 8.53125 12.0586C8.72917 12.7826 9.13021 13.4492 9.73438 14.0586C9.96354 14.2773 10.2318 14.4674 10.5391 14.6289C10.8464 14.7852 11.2266 14.9049 11.6797 14.9883Z" fill="#0F0223"/>
</svg>
