<svg width="18" height="17" viewBox="0 0 18 17" fill="none" xmlns="http://www.w3.org/2000/svg">
<path fill-rule="evenodd" clip-rule="evenodd" d="M8.83823 1.67787L7.15078 5.097C6.81576 5.77583 6.16816 6.24634 5.41902 6.3552L1.64578 6.90348L4.37612 9.56491C4.9182 10.0933 5.16556 10.8546 5.0376 11.6007L4.39305 15.3587L7.76794 13.5844C8.43799 13.2322 9.23846 13.2322 9.90851 13.5844L13.2834 15.3587L12.6389 11.6007C12.5109 10.8546 12.7582 10.0933 13.3003 9.56491L16.0307 6.90348L12.2574 6.3552C11.5083 6.24634 10.8607 5.77583 10.5257 5.097L8.83823 1.67787ZM9.73496 0.557434C9.36815 -0.185812 8.3083 -0.185811 7.94149 0.557434L5.98502 4.52167C5.83936 4.81681 5.5578 5.02138 5.23209 5.06871L0.857294 5.7044C0.037074 5.82359 -0.290436 6.83156 0.303081 7.4101L3.46871 10.4958C3.7044 10.7256 3.81194 11.0566 3.75631 11.381L3.009 15.7381C2.86889 16.555 3.72632 17.1779 4.45995 16.7922L8.37288 14.7351C8.66421 14.5819 9.01224 14.5819 9.30357 14.7351L13.2165 16.7922C13.9501 17.1779 14.8076 16.555 14.6674 15.7381L13.9201 11.381C13.8645 11.0566 13.9721 10.7256 14.2077 10.4958L17.3734 7.4101C17.9669 6.83156 17.6394 5.82359 16.8192 5.7044L12.4444 5.06871C12.1187 5.02138 11.8371 4.81681 11.6914 4.52167L9.73496 0.557434Z" fill="#0F0223"/>
</svg>
