<svg width="14" height="15" viewBox="0 0 14 15" fill="none" xmlns="http://www.w3.org/2000/svg">
<path d="M12.75 15H0.75C0.551088 15 0.360322 14.921 0.21967 14.7803C0.0790176 14.6397 0 14.4489 0 14.25V0.75C0 0.551088 0.0790176 0.360322 0.21967 0.21967C0.360322 0.0790176 0.551088 0 0.75 0H12.75C12.9489 0 13.1397 0.0790176 13.2803 0.21967C13.421 0.360322 13.5 0.551088 13.5 0.75V14.25C13.5 14.4489 13.421 14.6397 13.2803 14.7803C13.1397 14.921 12.9489 15 12.75 15ZM12 13.5V1.5H1.5V13.5H12ZM3.75 3.75H9.75V5.25H3.75V3.75ZM3.75 6.75H9.75V8.25H3.75V6.75ZM3.75 9.75H9.75V11.25H3.75V9.75Z" fill="#0F0223"/>
</svg>
