<svg width="425" height="434" viewBox="0 0 425 434" fill="none" xmlns="http://www.w3.org/2000/svg">
<rect x="115.039" y="35.4054" width="312.337" height="307.645" transform="rotate(18.9714 115.039 35.4054)" fill="#41FB6A"/>
<mask id="mask0_207_2455" style="mask-type:alpha" maskUnits="userSpaceOnUse" x="0" y="18" width="419" height="415">
<line x1="105.386" y1="19.3589" x2="418.023" y2="126.834" stroke="#3300FF"/>
<line x1="38.7097" y1="213.315" x2="351.347" y2="320.79" stroke="#3300FF"/>
<line x1="72.0476" y1="116.337" x2="384.685" y2="223.812" stroke="#3300FF"/>
<line x1="5.37153" y1="310.293" x2="318.009" y2="417.768" stroke="#3300FF"/>
<line x1="88.7167" y1="67.8478" x2="401.354" y2="175.323" stroke="#3300FF"/>
<line x1="22.0405" y1="261.804" x2="334.677" y2="369.279" stroke="#3300FF"/>
<line x1="55.3786" y1="164.826" x2="368.016" y2="272.301" stroke="#3300FF"/>
<line x1="97.0512" y1="43.6035" x2="409.688" y2="151.078" stroke="#3300FF"/>
<line x1="30.375" y1="237.56" x2="343.012" y2="345.035" stroke="#3300FF"/>
<line x1="63.7131" y1="140.581" x2="376.35" y2="248.056" stroke="#3300FF"/>
<line x1="80.3823" y1="92.0924" x2="393.019" y2="199.567" stroke="#3300FF"/>
<line x1="13.706" y1="286.049" x2="326.343" y2="393.524" stroke="#3300FF"/>
<line x1="47.0441" y1="189.071" x2="359.681" y2="296.546" stroke="#3300FF"/>
<line x1="101.218" y1="31.4812" x2="413.855" y2="138.956" stroke="#3300FF"/>
<line x1="34.5424" y1="225.437" x2="347.179" y2="332.912" stroke="#3300FF"/>
<line x1="67.8803" y1="128.459" x2="380.517" y2="235.934" stroke="#3300FF"/>
<line x1="1.2043" y1="322.415" x2="313.841" y2="429.89" stroke="#3300FF"/>
<line x1="84.5495" y1="79.9702" x2="397.186" y2="187.445" stroke="#3300FF"/>
<line x1="17.8732" y1="273.926" x2="330.51" y2="381.401" stroke="#3300FF"/>
<line x1="51.2114" y1="176.948" x2="363.848" y2="284.423" stroke="#3300FF"/>
<line x1="92.884" y1="55.7256" x2="405.521" y2="163.201" stroke="#3300FF"/>
<line x1="26.2077" y1="249.682" x2="338.845" y2="357.157" stroke="#3300FF"/>
<line x1="59.5458" y1="152.704" x2="372.183" y2="260.179" stroke="#3300FF"/>
<line x1="76.2148" y1="104.215" x2="388.852" y2="211.69" stroke="#3300FF"/>
<line x1="9.53877" y1="298.171" x2="322.176" y2="405.646" stroke="#3300FF"/>
<line x1="42.8769" y1="201.193" x2="355.514" y2="308.668" stroke="#3300FF"/>
<line x1="0.760314" y1="326.18" x2="106.4" y2="18.881" stroke="#3300FF"/>
<line x1="198.085" y1="394.015" x2="303.725" y2="86.7152" stroke="#3300FF"/>
<line x1="99.4229" y1="360.097" x2="205.063" y2="52.7981" stroke="#3300FF"/>
<line x1="296.748" y1="427.932" x2="402.388" y2="120.632" stroke="#3300FF"/>
<line x1="50.0916" y1="343.139" x2="155.732" y2="35.8395" stroke="#3300FF"/>
<line x1="247.417" y1="410.973" x2="353.057" y2="103.674" stroke="#3300FF"/>
<line x1="148.754" y1="377.056" x2="254.394" y2="69.7566" stroke="#3300FF"/>
<line x1="25.4258" y1="334.66" x2="131.066" y2="27.3602" stroke="#3300FF"/>
<line x1="222.751" y1="402.494" x2="328.391" y2="95.1945" stroke="#3300FF"/>
<line x1="124.088" y1="368.577" x2="229.728" y2="61.2773" stroke="#3300FF"/>
<line x1="74.7571" y1="351.618" x2="180.397" y2="44.3188" stroke="#3300FF"/>
<line x1="272.082" y1="419.452" x2="377.722" y2="112.153" stroke="#3300FF"/>
<line x1="173.42" y1="385.535" x2="279.06" y2="78.2359" stroke="#3300FF"/>
<line x1="13.0931" y1="330.42" x2="118.733" y2="23.1205" stroke="#3300FF"/>
<line x1="210.418" y1="398.254" x2="316.058" y2="90.9548" stroke="#3300FF"/>
<line x1="111.756" y1="364.337" x2="217.396" y2="57.0377" stroke="#3300FF"/>
<line x1="309.081" y1="432.171" x2="414.721" y2="124.872" stroke="#3300FF"/>
<line x1="62.4244" y1="347.378" x2="168.064" y2="40.0791" stroke="#3300FF"/>
<line x1="259.749" y1="415.213" x2="365.389" y2="107.913" stroke="#3300FF"/>
<line x1="161.087" y1="381.296" x2="266.727" y2="73.9963" stroke="#3300FF"/>
<line x1="37.7588" y1="338.899" x2="143.399" y2="31.5999" stroke="#3300FF"/>
<line x1="235.084" y1="406.734" x2="340.724" y2="99.4342" stroke="#3300FF"/>
<line x1="136.421" y1="372.816" x2="242.061" y2="65.517" stroke="#3300FF"/>
<line x1="87.0901" y1="355.858" x2="192.73" y2="48.5584" stroke="#3300FF"/>
<line x1="284.415" y1="423.692" x2="390.055" y2="116.393" stroke="#3300FF"/>
<line x1="185.753" y1="389.775" x2="291.393" y2="82.4756" stroke="#3300FF"/>
</mask>
<g mask="url(#mask0_207_2455)">
<path d="M114.83 36.0114L409.585 137.339L309.987 427.061L15.2328 325.733L114.83 36.0114Z" fill="#5200FF"/>
</g>
<rect x="132.807" y="75.5995" width="250.808" height="248.647" transform="rotate(18.9714 132.807 75.5995)" fill="white" stroke="#3300FF" stroke-width="2"/>
<ellipse cx="263.671" cy="81.6551" rx="28.4105" ry="27.9254" transform="rotate(18.9714 263.671 81.6551)" fill="#FF00E5"/>
<circle cx="151.77" cy="149.767" r="16.4552" transform="rotate(18.7147 151.77 149.767)" stroke="#FF00E5" stroke-width="3"/>
<path d="M142.571 146.487L147.041 155.814L162.737 147.828" stroke="#FF00E5" stroke-width="3" stroke-linecap="round" stroke-linejoin="round"/>
<circle cx="130.77" cy="210.767" r="16.4552" transform="rotate(18.7147 130.77 210.767)" stroke="#FF00E5" stroke-width="3"/>
<path d="M121.571 207.487L126.041 216.814L141.737 208.828" stroke="#FF00E5" stroke-width="3" stroke-linecap="round" stroke-linejoin="round"/>
<circle cx="108.77" cy="274.767" r="16.4552" transform="rotate(18.7147 108.77 274.767)" stroke="#FF00E5" stroke-width="3"/>
<path d="M99.571 271.487L104.041 280.814L119.737 272.828" stroke="#FF00E5" stroke-width="3" stroke-linecap="round" stroke-linejoin="round"/>
<path d="M180.67 166.3L192.383 170.094L193.359 167.08L185.345 164.484L189.546 151.516L185.847 150.317L180.67 166.3ZM200.056 157.115C201.381 157.544 202.552 156.965 202.937 155.778C203.292 154.682 202.668 153.571 201.343 153.142C200.019 152.713 198.848 153.293 198.485 154.411C198.123 155.53 198.732 156.686 200.056 157.115ZM193.742 170.534L197.304 171.688L201.283 159.404L197.721 158.251L193.742 170.534ZM211.657 162.563C209.99 162.023 208.367 162.128 207.068 162.868L207.534 161.429L204.132 160.327L200.153 172.611L203.714 173.765L205.682 167.691C206.414 165.431 207.987 164.78 209.699 165.335C211.275 165.845 211.892 167.054 211.249 169.041L209.148 175.525L212.71 176.679L214.988 169.647C216.201 165.902 214.557 163.502 211.657 162.563ZM224.638 180.543L228.953 181.94L225.675 173.058L232.475 169.509L228.229 168.133L221.425 171.379L224.532 161.789L220.97 160.635L215.482 177.577L219.044 178.73L220.057 175.603L222.317 174.468L224.638 180.543ZM248.312 184.276C247.213 184.475 246.218 184.354 245.213 184.029C242.154 183.038 240.718 180.227 241.687 177.236C242.671 174.199 245.467 172.809 248.572 173.815C250.193 174.34 251.356 175.347 252.121 176.958L255.205 175.535C254.237 173.228 252.219 171.515 249.41 170.605C244.319 168.956 239.503 171.205 237.943 176.023C236.382 180.84 238.964 185.486 243.987 187.113C246.27 187.853 248.92 187.929 251.107 187.174L253.207 180.69L249.828 179.595L248.312 184.276ZM267.273 187.618C268.552 183.668 266.551 180.345 262.943 179.177C259.199 177.964 255.532 179.703 254.342 183.378C253.158 187.032 255.056 190.598 259.302 191.974C261.517 192.691 263.451 192.561 265.014 191.629L263.785 188.96C262.681 189.486 261.62 189.571 260.318 189.149C258.446 188.543 257.448 187.185 257.601 185.544L266.893 188.554C267.012 188.265 267.184 187.892 267.273 187.618ZM262.093 181.878C263.691 182.396 264.53 183.778 264.279 185.412L258.228 183.452C258.99 181.958 260.472 181.353 262.093 181.878ZM286.982 186.964C285.133 186.365 283.29 186.6 281.902 187.538C281.47 185.91 280.224 184.775 278.511 184.22C276.936 183.709 275.388 183.814 274.135 184.568L274.594 183.153L271.192 182.05L267.212 194.334L270.774 195.488L272.771 189.323C273.481 187.131 274.933 186.466 276.508 186.977C277.992 187.457 278.541 188.644 277.898 190.631L275.797 197.115L279.359 198.269L281.356 192.104C282.066 189.912 283.518 189.247 285.116 189.765C286.554 190.231 287.149 191.433 286.505 193.419L284.405 199.903L287.967 201.057L290.245 194.025C291.458 190.28 289.904 187.91 286.982 186.964ZM300.405 187.427L299.444 190.395L302.64 191.431L298.424 204.445L302.123 205.643L307.3 189.661L300.405 187.427Z" fill="#0F0223"/>
<path d="M160.747 227.678L172.406 231.633L173.424 228.633L165.446 225.927L169.825 213.017L166.143 211.768L160.747 227.678ZM180.257 218.76C181.576 219.208 182.755 218.645 183.156 217.463C183.526 216.372 182.917 215.253 181.599 214.806C180.281 214.359 179.101 214.922 178.724 216.035C178.346 217.149 178.939 218.313 180.257 218.76ZM173.759 232.091L177.304 233.294L181.452 221.066L177.906 219.864L173.759 232.091ZM191.782 224.367C190.123 223.805 188.498 223.887 187.189 224.609L187.675 223.177L184.288 222.028L180.14 234.256L183.686 235.459L185.737 229.413C186.5 227.163 188.082 226.534 189.786 227.112C191.355 227.644 191.955 228.861 191.285 230.839L189.095 237.294L192.641 238.496L195.015 231.496C196.28 227.769 194.668 225.347 191.782 224.367ZM204.514 242.524L208.81 243.981L205.654 235.054L212.503 231.599L208.275 230.165L201.428 233.316L204.666 223.771L201.121 222.568L195.4 239.432L198.946 240.635L200.002 237.521L202.277 236.417L204.514 242.524ZM228.135 246.582C227.033 246.766 226.04 246.632 225.04 246.293C221.994 245.26 220.598 242.429 221.608 239.452C222.633 236.429 225.448 235.077 228.539 236.126C230.153 236.673 231.301 237.696 232.044 239.317L235.148 237.937C234.211 235.617 232.217 233.876 229.421 232.928C224.353 231.209 219.507 233.392 217.88 238.187C216.253 242.983 218.771 247.664 223.771 249.36C226.044 250.131 228.692 250.243 230.89 249.519L233.079 243.064L229.715 241.923L228.135 246.582ZM247.048 250.184C248.381 246.252 246.426 242.903 242.835 241.685C239.107 240.42 235.418 242.108 234.176 245.768C232.943 249.404 234.791 252.996 239.018 254.43C241.223 255.178 243.159 255.074 244.735 254.164L243.542 251.479C242.431 251.989 241.368 252.059 240.073 251.62C238.209 250.988 237.23 249.617 237.405 247.978L246.656 251.116C246.779 250.828 246.955 250.457 247.048 250.184ZM241.948 244.374C243.539 244.914 244.359 246.307 244.084 247.937L238.062 245.894C238.843 244.411 240.334 243.827 241.948 244.374ZM266.764 249.801C264.923 249.177 263.078 249.387 261.677 250.306C261.268 248.672 260.037 247.519 258.332 246.941C256.764 246.409 255.215 246.492 253.951 247.229L254.429 245.82L251.043 244.672L246.895 256.899L250.441 258.102L252.522 251.965C253.263 249.783 254.723 249.138 256.291 249.67C257.769 250.171 258.301 251.366 257.631 253.343L255.441 259.798L258.987 261.001L261.068 254.864C261.808 252.682 263.269 252.037 264.86 252.577C266.292 253.062 266.87 254.272 266.199 256.25L264.01 262.704L267.555 263.907L269.93 256.907C271.194 253.179 269.673 250.788 266.764 249.801ZM281.574 265.317L286.405 263.103C289.334 261.791 290.244 260.528 290.768 258.983C291.747 256.096 290 253.476 286.454 252.273C283.591 251.302 280.97 251.706 279.134 253.085L281.23 255.722C282.365 254.916 283.701 254.786 285.065 255.249C286.747 255.819 287.364 256.839 286.94 258.09C286.678 258.862 286.15 259.596 284.286 260.459L276.184 264.173L275.374 266.559L287.397 270.638L288.415 267.637L281.574 265.317Z" fill="#0F0223"/>
<path d="M139.819 292.16L151.432 296.249L152.484 293.261L144.538 290.463L149.066 277.605L145.399 276.314L139.819 292.16ZM159.431 283.469C160.744 283.931 161.93 283.382 162.345 282.205C162.727 281.118 162.132 279.993 160.819 279.53C159.506 279.068 158.32 279.617 157.929 280.726C157.539 281.836 158.119 283.007 159.431 283.469ZM152.779 296.724L156.31 297.968L160.599 285.789L157.068 284.545L152.779 296.724ZM170.89 289.209C169.238 288.627 167.612 288.691 166.295 289.397L166.797 287.971L163.424 286.783L159.135 298.962L162.667 300.206L164.787 294.184C165.576 291.943 167.165 291.332 168.863 291.93C170.425 292.48 171.012 293.705 170.318 295.674L168.054 302.103L171.586 303.347L174.041 296.374C175.348 292.662 173.765 290.221 170.89 289.209ZM183.412 307.511L187.69 309.018L184.638 300.055L191.526 296.68L187.316 295.197L180.432 298.269L183.781 288.761L180.249 287.518L174.334 304.315L177.865 305.558L178.958 302.457L181.245 301.38L183.412 307.511ZM206.984 311.843C205.88 312.014 204.888 311.868 203.892 311.518C200.859 310.449 199.495 307.603 200.539 304.637C201.6 301.627 204.43 300.308 207.509 301.392C209.116 301.958 210.253 302.994 210.977 304.623L214.096 303.279C213.187 300.949 211.212 299.185 208.428 298.204C203.38 296.427 198.509 298.553 196.827 303.33C195.145 308.106 197.608 312.816 202.588 314.57C204.852 315.367 207.499 315.51 209.704 314.811L211.968 308.382L208.618 307.202L206.984 311.843ZM225.854 315.664C227.233 311.747 225.316 308.375 221.739 307.116C218.027 305.808 214.318 307.454 213.034 311.098C211.759 314.72 213.565 318.334 217.776 319.816C219.972 320.59 221.909 320.508 223.495 319.617L222.333 316.918C221.217 317.415 220.153 317.473 218.863 317.019C217.006 316.365 216.043 314.982 216.238 313.346L225.451 316.591C225.577 316.304 225.758 315.935 225.854 315.664ZM220.821 309.795C222.406 310.353 223.21 311.756 222.917 313.383L216.918 311.27C217.717 309.796 219.214 309.229 220.821 309.795ZM245.573 315.509C243.74 314.863 241.892 315.052 240.48 315.955C240.09 314.316 238.873 313.149 237.175 312.551C235.613 312.001 234.063 312.066 232.791 312.789L233.285 311.385L229.912 310.198L225.624 322.376L229.155 323.62L231.307 317.508C232.073 315.335 233.541 314.707 235.103 315.257C236.574 315.775 237.093 316.975 236.399 318.945L234.135 325.374L237.667 326.617L239.819 320.505C240.584 318.332 242.052 317.704 243.637 318.262C245.063 318.764 245.627 319.981 244.934 321.95L242.67 328.379L246.201 329.623L248.656 322.65C249.964 318.938 248.471 316.529 245.573 315.509ZM264.835 325.625L269.847 322.81L270.684 320.433L259.592 316.527L258.555 319.47L265.301 321.846L260.742 324.388L259.889 326.81L261.564 327.4C263.647 328.133 264.267 329.191 263.844 330.391C263.39 331.681 261.995 332.03 260.161 331.384C258.509 330.802 257.017 329.691 256.136 328.363L253.721 330.668C254.878 332.297 256.949 333.713 259.168 334.494C263.673 336.081 266.594 334.361 267.534 331.69C268.355 329.359 267.528 327.083 264.835 325.625Z" fill="#0F0223"/>
</svg>
