<svg width="37" height="43" viewBox="0 0 37 43" fill="none" xmlns="http://www.w3.org/2000/svg">
<path d="M17.5438 1.12492C17.8324 0.18173 19.1676 0.18173 19.4562 1.12492L22.9273 12.4681C23.0809 12.9701 23.5966 13.2679 24.1082 13.1499L35.6672 10.4843C36.6284 10.2627 37.296 11.419 36.6235 12.1406L28.5355 20.8182C28.1775 21.2022 28.1775 21.7978 28.5355 22.1818L36.6235 30.8594C37.296 31.581 36.6284 32.7373 35.6672 32.5157L24.1082 29.8501C23.5966 29.7321 23.0809 30.0299 22.9273 30.5319L19.4562 41.8751C19.1676 42.8183 17.8324 42.8183 17.5438 41.8751L14.0727 30.5319C13.9191 30.0299 13.4034 29.7321 12.8918 29.8501L1.33278 32.5157C0.371644 32.7373 -0.295971 31.581 0.376545 30.8594L8.46451 22.1818C8.82248 21.7978 8.82248 21.2022 8.46451 20.8182L0.376545 12.1406C-0.29597 11.419 0.371644 10.2627 1.33278 10.4843L12.8918 13.1499C13.4034 13.2679 13.9191 12.9701 14.0727 12.4681L17.5438 1.12492Z" fill="#FF5F05"/>
</svg>
