<svg width="current" height="current" viewBox="0 0 56 64" fill="none" xmlns="http://www.w3.org/2000/svg">
<path d="M27.0438 1.12492C27.3324 0.181729 28.6676 0.18173 28.9562 1.12492L34.5273 19.3308C34.6809 19.8328 35.1966 20.1306 35.7082 20.0126L54.2605 15.7343C55.2216 15.5127 55.8892 16.669 55.2167 17.3906L42.2355 31.3182C41.8775 31.7023 41.8775 32.2977 42.2355 32.6818L55.2167 46.6094C55.8892 47.331 55.2216 48.4873 54.2605 48.2657L35.7082 43.9874C35.1966 43.8694 34.6809 44.1672 34.5273 44.6692L28.9562 62.8751C28.6676 63.8183 27.3324 63.8183 27.0438 62.8751L21.4727 44.6692C21.3191 44.1672 20.8034 43.8694 20.2918 43.9874L1.73951 48.2657C0.778375 48.4873 0.110762 47.331 0.783278 46.6094L13.7645 32.6818C14.1225 32.2977 14.1225 31.7023 13.7645 31.3182L0.783276 17.3906C0.110761 16.669 0.778376 15.5127 1.73951 15.7343L20.2918 20.0126C20.8034 20.1306 21.3191 19.8328 21.4727 19.3308L27.0438 1.12492Z" fill="current"/>
</svg>
