<svg width="22" height="24" viewBox="0 0 22 24" fill="none" xmlns="http://www.w3.org/2000/svg">
<path d="M10.0438 1.12492C10.3324 0.181732 11.6676 0.18173 11.9562 1.12492L13.5273 6.259C13.6809 6.76104 14.1966 7.05879 14.7082 6.94082L19.94 5.73434C20.9011 5.51269 21.5687 6.66904 20.8962 7.39058L17.2355 11.3182C16.8775 11.7022 16.8775 12.2978 17.2355 12.6818L20.8962 16.6094C21.5687 17.331 20.9011 18.4873 19.94 18.2657L14.7082 17.0592C14.1966 16.9412 13.6809 17.239 13.5273 17.741L11.9562 22.8751C11.6676 23.8183 10.3324 23.8183 10.0438 22.8751L8.47273 17.741C8.3191 17.239 7.80338 16.9412 7.29179 17.0592L2.06002 18.2657C1.09889 18.4873 0.431271 17.331 1.10379 16.6094L4.76451 12.6818C5.12248 12.2978 5.12248 11.7022 4.76451 11.3182L1.10379 7.39058C0.431273 6.66904 1.09889 5.51269 2.06002 5.73434L7.29178 6.94082C7.80338 7.05879 8.3191 6.76104 8.47273 6.259L10.0438 1.12492Z" fill="white"/>
</svg>
