<svg width="28" height="28" viewBox="0 0 28 28" fill="none" xmlns="http://www.w3.org/2000/svg">
<path d="M27.0233 23.4419H0.976807V20.8372H2.27913V11.7613C2.27913 5.2653 7.5275 0 14.0001 0C20.4726 0 25.721 5.2653 25.721 11.7613V20.8372H27.0233V23.4419ZM4.88378 20.8372H23.1163V11.7613C23.1163 6.70437 19.0349 2.60465 14.0001 2.60465C8.96527 2.60465 4.88378 6.70437 4.88378 11.7613V20.8372ZM10.7442 24.7442H17.2559C17.2559 25.6077 16.9129 26.4358 16.3023 27.0464C15.6917 27.657 14.8636 28 14.0001 28C13.1366 28 12.3084 27.657 11.6979 27.0464C11.0873 26.4358 10.7442 25.6077 10.7442 24.7442Z" fill="white"/>
</svg>
