<svg width="24" height="24" viewBox="0 0 24 24" fill="none" xmlns="http://www.w3.org/2000/svg">
<path d="M11.3047 0.672629C11.6924 0.297595 12.3076 0.297595 12.6953 0.672629L14.6152 2.52998C14.8369 2.74444 15.1452 2.84459 15.4506 2.8014L18.0956 2.42728C18.6296 2.35174 19.1274 2.71337 19.2206 3.24465L19.6821 5.87578C19.7354 6.17959 19.9259 6.44181 20.1984 6.58637L22.5581 7.83839C23.0346 8.09119 23.2247 8.67632 22.9878 9.16091L21.8147 11.5608C21.6792 11.8379 21.6792 12.1621 21.8147 12.4392L22.9878 14.8391C23.2247 15.3237 23.0346 15.9088 22.5581 16.1616L20.1984 17.4136C19.9259 17.5582 19.7354 17.8204 19.6821 18.1242L19.2206 20.7554C19.1274 21.2866 18.6296 21.6483 18.0956 21.5727L15.4506 21.1986C15.1452 21.1554 14.8369 21.2556 14.6152 21.47L12.6953 23.3274C12.3076 23.7024 11.6924 23.7024 11.3047 23.3274L9.38477 21.47C9.16308 21.2556 8.85483 21.1554 8.54943 21.1986L5.90444 21.5727C5.37037 21.6483 4.87263 21.2866 4.77943 20.7554L4.31789 18.1242C4.2646 17.8204 4.07409 17.5582 3.80162 17.4136L1.44189 16.1616C0.965412 15.9088 0.775291 15.3237 1.01217 14.8391L2.18532 12.4392C2.32078 12.1621 2.32078 11.8379 2.18532 11.5608L1.01217 9.16091C0.775291 8.67632 0.965413 8.09119 1.44189 7.83839L3.80162 6.58637C4.07409 6.44181 4.2646 6.17959 4.31789 5.87578L4.77943 3.24465C4.87263 2.71337 5.37037 2.35174 5.90444 2.42728L8.54943 2.8014C8.85483 2.84459 9.16308 2.74444 9.38477 2.52998L11.3047 0.672629Z" fill="#0F0223"/>
</svg>
