<svg width="19" height="18" viewBox="0 0 19 18" fill="none" xmlns="http://www.w3.org/2000/svg">
<path d="M8.60326 0.816986C8.97008 0.0737402 10.0299 0.07374 10.3967 0.816986L12.3532 4.78122C12.4989 5.07636 12.7804 5.28093 13.1061 5.32826L17.4809 5.96395C18.3012 6.08314 18.6287 7.09111 18.0351 7.66965L14.8695 10.7554C14.6338 10.9851 14.5263 11.3161 14.5819 11.6405L15.3292 15.9976C15.4693 16.8145 14.6119 17.4375 13.8783 17.0518L9.96534 14.9946C9.67402 14.8415 9.32598 14.8415 9.03466 14.9946L5.12173 17.0518C4.3881 17.4375 3.53067 16.8145 3.67078 15.9976L4.41808 11.6405C4.47372 11.3161 4.36617 10.9851 4.13048 10.7554L0.964856 7.66965C0.371339 7.09111 0.698849 6.08314 1.51907 5.96395L5.89386 5.32826C6.21957 5.28093 6.50114 5.07636 6.6468 4.78122L8.60326 0.816986Z" fill="#0F0223"/>
</svg>
