<svg width="32" height="32" viewBox="0 0 32 32" fill="none" xmlns="http://www.w3.org/2000/svg">
<circle cx="16" cy="16" r="16" fill="#0F0223"/>
<g clip-path="url(#clip0_334_230)">
<path d="M12.2495 10V8.5H19.7495V10H23.4995V11.5H21.9995V22.75C21.9995 22.9489 21.9205 23.1397 21.7798 23.2803C21.6392 23.421 21.4484 23.5 21.2495 23.5H10.7495C10.5506 23.5 10.3598 23.421 10.2192 23.2803C10.0785 23.1397 9.99951 22.9489 9.99951 22.75V11.5H8.49951V10H12.2495ZM11.4995 11.5V22H20.4995V11.5H11.4995ZM13.7495 13.75H15.2495V19.75H13.7495V13.75ZM16.7495 13.75H18.2495V19.75H16.7495V13.75Z" fill="white"/>
</g>
<defs>
<clipPath id="clip0_334_230">
<rect width="19.2" height="19.2" fill="white" transform="translate(6.3999 6.40039)"/>
</clipPath>
</defs>
</svg>
