<svg width="16" height="16" viewBox="0 0 16 16" fill="none" xmlns="http://www.w3.org/2000/svg">
<path d="M8.10938 4.83203L7.05469 5.89453C7.51302 5.9362 7.90625 6.02734 8.23438 6.16797C8.5625 6.30859 8.84375 6.49609 9.07812 6.73047C9.5 7.15234 9.78125 7.62109 9.92188 8.13672C10.0625 8.64714 10.0625 9.15755 9.92188 9.66797C9.78125 10.1732 9.5 10.6367 9.07812 11.0586L6.64844 13.4883C6.22656 13.9154 5.76042 14.1992 5.25 14.3398C4.73958 14.4805 4.22917 14.4805 3.71875 14.3398C3.20833 14.1992 2.74479 13.918 2.32812 13.4961C1.90104 13.069 1.61719 12.6003 1.47656 12.0898C1.33594 11.5794 1.33594 11.0716 1.47656 10.5664C1.61719 10.056 1.89844 9.58984 2.32031 9.16797L3.66406 7.80859C3.5599 7.55859 3.48958 7.29036 3.45312 7.00391C3.42188 6.71224 3.43229 6.43359 3.48438 6.16797L1.34375 8.30859C0.75 8.90755 0.351562 9.56901 0.148438 10.293C-0.0494792 11.0117 -0.0494792 11.7357 0.148438 12.4648C0.346354 13.1888 0.747396 13.8529 1.35156 14.457C1.95573 15.0664 2.61979 15.4701 3.34375 15.668C4.07292 15.8711 4.79948 15.8711 5.52344 15.668C6.2474 15.4648 6.90885 15.0638 7.50781 14.4648L10.0547 11.918C10.6484 11.319 11.0469 10.6576 11.25 9.93359C11.4531 9.20964 11.4531 8.48568 11.25 7.76172C11.0521 7.03255 10.651 6.36589 10.0469 5.76172C9.81771 5.54297 9.54948 5.35286 9.24219 5.19141C8.9401 5.02995 8.5625 4.91016 8.10938 4.83203ZM7.67969 10.9883L8.72656 9.92578C8.26823 9.88411 7.875 9.79297 7.54688 9.65234C7.21875 9.51172 6.9401 9.32161 6.71094 9.08203C6.28385 8.66016 6 8.19401 5.85938 7.68359C5.71875 7.17318 5.71875 6.66276 5.85938 6.15234C6 5.64193 6.28125 5.17578 6.70312 4.75391L9.14062 2.33203C9.55729 1.90495 10.0208 1.62109 10.5312 1.48047C11.0417 1.33984 11.5521 1.33984 12.0625 1.48047C12.5729 1.62109 13.0391 1.90234 13.4609 2.32422C13.888 2.7513 14.1719 3.22005 14.3125 3.73047C14.4531 4.24089 14.4505 4.7513 14.3047 5.26172C14.1641 5.76693 13.8828 6.23047 13.4609 6.65234L12.1172 8.00391C12.2214 8.25911 12.2891 8.53255 12.3203 8.82422C12.3568 9.11068 12.349 9.38411 12.2969 9.64453L14.4375 7.51172C15.0365 6.91276 15.4349 6.2513 15.6328 5.52734C15.8359 4.80339 15.8359 4.07943 15.6328 3.35547C15.4349 2.63151 15.0339 1.96484 14.4297 1.35547C13.8255 0.751302 13.1589 0.35026 12.4297 0.152344C11.7057 -0.0507812 10.9818 -0.0507812 10.2578 0.152344C9.53906 0.355469 8.88021 0.753906 8.28125 1.34766L5.72656 3.90234C5.13281 4.5013 4.73438 5.16276 4.53125 5.88672C4.33333 6.61068 4.33333 7.33464 4.53125 8.05859C4.72917 8.78255 5.13021 9.44922 5.73438 10.0586C5.96354 10.2773 6.23177 10.4674 6.53906 10.6289C6.84635 10.7852 7.22656 10.9049 7.67969 10.9883Z" fill="#0F0223"/>
</svg>
