<svg width="16" height="16" viewBox="0 0 16 16" fill="none" xmlns="http://www.w3.org/2000/svg">
<path d="M0.811787 11.9993C0.460901 11.4146 0.188143 10.7895 0 10.1388C0.409469 9.93814 0.753347 9.63221 0.993591 9.25489C1.23384 8.87757 1.36108 8.44357 1.36126 8.00089C1.36143 7.55821 1.23452 7.12411 0.994565 6.74662C0.754613 6.36913 0.410973 6.06296 0.00166017 5.86198C0.376872 4.5546 1.09129 3.36079 2.07761 2.393C2.46283 2.63433 2.90983 2.76826 3.36915 2.77995C3.82846 2.79164 4.28218 2.68065 4.68008 2.45925C5.07799 2.23785 5.40457 1.91468 5.62368 1.5255C5.84279 1.13633 5.94589 0.696318 5.92156 0.254176C7.28459 -0.0852663 8.71486 -0.0847157 10.0776 0.255775C10.0535 0.697909 10.1568 1.13785 10.3761 1.52692C10.5954 1.91598 10.9221 2.239 11.32 2.46023C11.718 2.68146 12.1718 2.79227 12.6311 2.78041C13.0904 2.76854 13.5373 2.63446 13.9224 2.393C14.403 2.86491 14.8296 3.40162 15.1882 4.00071C15.5476 4.5998 15.8166 5.22449 16 5.86118C15.5905 6.06187 15.2467 6.36779 15.0064 6.74511C14.7662 7.12243 14.6389 7.55643 14.6387 7.99911C14.6386 8.44179 14.7655 8.87589 15.0054 9.25338C15.2454 9.63087 15.589 9.93704 15.9983 10.138C15.6231 11.4454 14.9087 12.6392 13.9224 13.607C13.5372 13.3657 13.0902 13.2317 12.6309 13.22C12.1715 13.2084 11.7178 13.3194 11.3199 13.5408C10.922 13.7621 10.5954 14.0853 10.3763 14.4745C10.1572 14.8637 10.0541 15.3037 10.0784 15.7458C8.71541 16.0853 7.28514 16.0847 5.92239 15.7442C5.9465 15.3021 5.8432 14.8622 5.62392 14.4731C5.40464 14.084 5.07794 13.761 4.67995 13.5398C4.28197 13.3185 3.82823 13.2077 3.36894 13.2196C2.90965 13.2315 2.46272 13.3655 2.07761 13.607C1.58704 13.1246 1.16173 12.5845 0.811787 11.9993ZM5.50986 12.1561C6.39438 12.6477 7.05943 13.4366 7.37746 14.3717C7.79166 14.4093 8.20751 14.4101 8.6217 14.3725C8.93995 13.4373 9.60531 12.6483 10.4901 12.1569C11.3743 11.6639 12.4163 11.503 13.4161 11.7049C13.6568 11.3786 13.8643 11.0307 14.0369 10.6667C13.3558 9.93361 12.9796 8.98399 12.9803 8C12.9803 6.99218 13.3704 6.05075 14.0369 5.33327C13.8631 4.96946 13.6547 4.62191 13.4144 4.29506C12.4153 4.49687 11.374 4.33623 10.4901 3.84394C9.60562 3.35232 8.94057 2.56335 8.62254 1.62833C8.20834 1.59074 7.79249 1.58994 7.37829 1.62753C7.06005 2.56268 6.39469 3.35167 5.50986 3.84314C4.62568 4.3361 3.58371 4.49704 2.58394 4.29506C2.34369 4.62163 2.13582 4.96923 1.96306 5.33327C2.64418 6.06639 3.02045 7.01601 3.01971 8C3.01971 9.00782 2.62959 9.94925 1.96306 10.6667C2.13693 11.0305 2.34533 11.3781 2.5856 11.7049C3.58474 11.5031 4.62603 11.6638 5.50986 12.1561ZM8 10.3996C7.33957 10.3996 6.70619 10.1468 6.2392 9.69676C5.77221 9.24675 5.50986 8.63641 5.50986 8C5.50986 7.36359 5.77221 6.75325 6.2392 6.30325C6.70619 5.85324 7.33957 5.60043 8 5.60043C8.66043 5.60043 9.29381 5.85324 9.7608 6.30325C10.2278 6.75325 10.4901 7.36359 10.4901 8C10.4901 8.63641 10.2278 9.24675 9.7608 9.69676C9.29381 10.1468 8.66043 10.3996 8 10.3996ZM8 8.79986C8.22014 8.79986 8.43127 8.71559 8.58693 8.56559C8.7426 8.41558 8.83005 8.21214 8.83005 8C8.83005 7.78786 8.7426 7.58442 8.58693 7.43442C8.43127 7.28441 8.22014 7.20014 8 7.20014C7.77986 7.20014 7.56873 7.28441 7.41307 7.43442C7.2574 7.58442 7.16995 7.78786 7.16995 8C7.16995 8.21214 7.2574 8.41558 7.41307 8.56559C7.56873 8.71559 7.77986 8.79986 8 8.79986Z" fill="#0F0223"/>
</svg>
