<svg width="165" height="27" viewBox="0 0 165 27" fill="none" xmlns="http://www.w3.org/2000/svg">
<path d="M7.41695 21.217H15.7375V26.8122H0V0.225315H7.41695V21.217Z" fill="white"/>
<path d="M24.8181 0.225315V26.8122H17.4011V0.225315H24.8181Z" fill="white"/>
<path d="M52.4025 26.8122H44.9855L35.1967 11.9791V26.8122H27.7797V0.262867H35.1967L44.9855 15.2837V0.262867H52.4025V26.8122Z" fill="white"/>
<path d="M69.7851 13.2184L80.101 26.8122H71.1781L62.7823 15.0584V26.8122H55.3653V0.225315H62.7823V11.7163L71.2534 0.225315H80.101L69.7851 13.2184Z" fill="white"/>
<path d="M99.8388 0C103.252 0 106.051 0.826149 108.235 2.47844C110.418 4.13074 111.736 6.35883 112.188 9.16273H104.394C103.993 8.43672 103.403 7.86092 102.625 7.43533C101.847 7.00974 100.931 6.79694 99.8764 6.79694C98.0692 6.79694 96.626 7.41029 95.5467 8.637C94.4925 9.83867 93.9654 11.4534 93.9654 13.4812C93.9654 15.7844 94.5302 17.5369 95.6597 18.7385C96.8142 19.9152 98.4959 20.5035 100.705 20.5035C101.96 20.5035 103.064 20.2031 104.018 19.6022C104.972 19.0014 105.725 18.1127 106.277 16.936H98.8975V11.6787H112.414V19.0014C111.46 21.2045 109.929 23.0946 107.82 24.6718C105.737 26.2239 103.102 27 99.9141 27C97.2033 27 94.8314 26.4367 92.7983 25.3102C90.7652 24.1586 89.1965 22.5563 88.0921 20.5035C87.0128 18.4506 86.4732 16.1099 86.4732 13.4812C86.4732 10.8526 87.0128 8.52434 88.0921 6.49652C89.1965 4.44367 90.7527 2.85397 92.7607 1.7274C94.7686 0.575801 97.128 0 99.8388 0Z" fill="white"/>
<path d="M122.008 6.121V10.5146H130.63V16.1099H122.008V20.9165H131.759V26.8122H114.591V0.225315H131.759V6.121H122.008Z" fill="white"/>
<path d="M165 0.33797V26.8122H157.658V11.7914L152.726 26.8122H146.364L141.431 11.7914V26.8122H134.014V0.33797H143.088L149.639 17.5369L156.002 0.33797H165Z" fill="white"/>
</svg>
