<svg width="133" height="23" viewBox="0 0 133 23" fill="none" xmlns="http://www.w3.org/2000/svg">
<path d="M5.99531 17.612H12.6666V22.1098H0.0485229V0.737641H5.99531V17.612Z" fill="white"/>
<path d="M19.9472 0.737641V22.1098H14.0004V0.737641H19.9472Z" fill="white"/>
<path d="M42.064 22.1098H36.1172L28.2686 10.1861V22.1098H22.3218V0.767827H28.2686L36.1172 12.8425V0.767827H42.064V22.1098Z" fill="white"/>
<path d="M56.001 11.1822L64.2722 22.1098H57.1179L50.3863 12.6614V22.1098H44.4395V0.737641H50.3863V9.97478L57.1783 0.737641H64.2722L56.001 11.1822Z" fill="white"/>
<path d="M80.0976 0.556519C82.8345 0.556519 85.0784 1.22063 86.8292 2.54884C88.58 3.87706 89.6366 5.66814 89.9988 7.92208H83.7502C83.4282 7.33847 82.9553 6.87561 82.3314 6.53349C81.7075 6.19137 80.973 6.02031 80.1278 6.02031C78.6788 6.02031 77.5217 6.51337 76.6563 7.49947C75.8111 8.46544 75.3885 9.76347 75.3885 11.3936C75.3885 13.245 75.8412 14.6537 76.7468 15.6197C77.6726 16.5655 79.0209 17.0385 80.7919 17.0385C81.7981 17.0385 82.6836 16.797 83.4483 16.314C84.213 15.831 84.8168 15.1166 85.2595 14.1707H79.3429V9.94459H90.18V15.831C89.4152 17.602 88.1876 19.1214 86.4972 20.3892C84.8268 21.6369 82.7138 22.2608 80.158 22.2608C77.9845 22.2608 76.0827 21.808 74.4527 20.9024C72.8226 19.9766 71.5648 18.6887 70.6793 17.0385C69.814 15.3883 69.3813 13.5066 69.3813 11.3936C69.3813 9.28048 69.814 7.40891 70.6793 5.77882C71.5648 4.12861 72.8125 2.85071 74.4225 1.94511C76.0324 1.01938 77.9241 0.556519 80.0976 0.556519Z" fill="white"/>
<path d="M97.8726 5.47696V9.0088H104.785V13.5066H97.8726V17.3705H105.691V22.1098H91.9258V0.737641H105.691V5.47696H97.8726Z" fill="white"/>
<path d="M132.343 0.8282V22.1098H126.456V10.0352L122.502 22.1098H117.4L113.446 10.0352V22.1098H107.499V0.8282H114.774L120.027 14.6537L125.128 0.8282H132.343Z" fill="white"/>
<path d="M43.8553 5.1709L45.5013 9.62987L50.1539 11.4695L45.5013 13.3091L43.8553 18.0533L42.3062 13.1154L37.5568 11.4695L42.3062 9.62987L43.8553 5.1709Z" fill="#5200FF"/>
</svg>
